HIERARCHY
ROOT Hips
{
	OFFSET 0.00000 0.00000 0.00000
	CHANNELS 6 Xposition Yposition Zposition Zrotation Yrotation Xrotation 
	JOINT LHipJoint
	{
		OFFSET 0 0 0
		CHANNELS 3 Zrotation Yrotation Xrotation
		JOINT LeftHip
		{
			OFFSET 1.56857 -1.73443 1.15205
			CHANNELS 3 Zrotation Yrotation Xrotation
			JOINT LeftKnee
			{
				OFFSET 2.39362 -6.57643 0.00000
				CHANNELS 3 Zrotation Yrotation Xrotation
				JOINT LeftAnkle
				{
					OFFSET 2.50952 -6.89485 0.00000
					CHANNELS 3 Zrotation Yrotation Xrotation
					JOINT LeftToe
					{
						OFFSET 0.17171 -0.47178 1.88682
						CHANNELS 3 Zrotation Yrotation Xrotation
						End Site
						{
							OFFSET 0.00000 -0.00000 0.98146
						}
					}
				}
			}
		}
	}
	JOINT RHipJoint
	{
		OFFSET 0 0 0
		CHANNELS 3 Zrotation Yrotation Xrotation
		JOINT RightHip
		{
			OFFSET -1.28153 -1.73443 1.15205
			CHANNELS 3 Zrotation Yrotation Xrotation
			JOINT RightKnee
			{
				OFFSET -2.26861 -6.23296 0.00000
				CHANNELS 3 Zrotation Yrotation Xrotation
				JOINT RightAnkle
				{
					OFFSET -2.54143 -6.98254 0.00000
					CHANNELS 3 Zrotation Yrotation Xrotation
					JOINT RightToe
					{
						OFFSET -0.23309 -0.64041 1.93119
						CHANNELS 3 Zrotation Yrotation Xrotation
						End Site
						{
							OFFSET -0.00000 -0.00000 1.02013
						}
					}
				}
			}
		}
	}
	JOINT lowerback
	{
		OFFSET 0 0 0
		CHANNELS 3 Zrotation Yrotation Xrotation
		JOINT Chest
		{
			OFFSET -0.07096 2.10460 -0.27878
			CHANNELS 3 Zrotation Yrotation Xrotation
			JOINT Chest2
			{
				OFFSET -0.00826 2.13662 -0.08279
				CHANNELS 3 Zrotation Yrotation Xrotation
				JOINT lowerneck
				{
					OFFSET 0 0 0
					CHANNELS 3 Zrotation Yrotation Xrotation
					JOINT Neck
					{
						OFFSET 0.03239 1.77799 0.24435
						CHANNELS 3 Zrotation Yrotation Xrotation
						JOINT Head
						{
							OFFSET 0.01026 1.74194 -0.49664
							CHANNELS 3 Zrotation Yrotation Xrotation
							End Site
							{
								OFFSET 0.00170 1.83057 -0.19653
							}
						}
					}
				}
				JOINT LeftCollar
				{
					OFFSET 0 0 0
					CHANNELS 3 Zrotation Yrotation Xrotation
					JOINT LeftShoulder
					{
						OFFSET 3.19178 1.35907 -0.31412
CHANNELS 3 Zrotation Xrotation Yrotation
						JOINT LeftElbow
						{
OFFSET 0 -4.852470 -0.000000
CHANNELS 3 Zrotation Xrotation Yrotation
							JOINT LeftWrist
							{
OFFSET 0 -3.555840 0.000000
CHANNELS 3 Zrotation Xrotation Yrotation
								JOINT lhand
								{
									OFFSET 0 0 0
CHANNELS 3 Zrotation Xrotation Yrotation
									JOINT LFingers
									{
OFFSET 0 -0.693200 0.000000
CHANNELS 3 Zrotation Xrotation Yrotation
										End Site
										{
OFFSET 0 -0.558880 0.000000
										}
									}
								}
								JOINT LThumb
								{
OFFSET 0 0.000000 0.000000
CHANNELS 3 Zrotation Xrotation Yrotation
									End Site
									{
OFFSET 0 -0.567410 0.567410
									}
								}
							}
						}
					}
				}
				JOINT RightCollar
				{
					OFFSET 0 0 0
					CHANNELS 3 Zrotation Yrotation Xrotation
					JOINT RightShoulder
					{
						OFFSET -3.28999 1.24191 -0.26899
CHANNELS 3 Zrotation Xrotation Yrotation
						JOINT RightElbow
						{
OFFSET 0 -4.644620 0.000000
CHANNELS 3 Zrotation Xrotation Yrotation
							JOINT RightWrist
							{
OFFSET 0 -3.407030 0.000000
CHANNELS 3 Zrotation Xrotation Yrotation
								JOINT rhand
								{
									OFFSET 0 0 0
CHANNELS 3 Zrotation Xrotation Yrotation
									JOINT RFingers
									{
OFFSET 0 -0.619580 0.000000
CHANNELS 3 Zrotation Xrotation Yrotation
										End Site
										{
OFFSET 0 -0.499520 0.000000
										}
									}
								}
								JOINT RThumb
								{
OFFSET 0 0.000000 0.000000
CHANNELS 3 Zrotation Xrotation Yrotation
									End Site
									{
OFFSET 0 -0.507150 0.507150
									}
								}
							}
						}
					}
				}
			}
		}
	}
}
MOTION
Frames: 6
Frame Time: .0083333
12.4031 17.0734 -4.3979 -198.7250 2.2187 -171.6260 0.0000 0.0000 0.0000 -21.0043 23.5570 -24.8028 4.0799 12.2660 36.6796 -0.2568 -14.2631 17.0487 0.3495 3.7986 10.5107 0.0000 0.0000 0.0000 -22.0321 4.8723 -28.9476 -1.8272 -8.4965 24.2327 -0.1569 1.8873 -7.0622 -0.8529 5.8899 -16.4652 -1.0159 0.1802 21.3338 4.7854 1.6867 6.4430 5.2818 1.3595 -5.0603 -9.1380 -13.4158 -18.2119 4.5208 -17.0526 13.9836 0.6527 -8.1261 8.4464 0.0000 0.0000 0.0000 67.18 -5.7541 -24.2185 20.7249 -31.5058 5.9055 15.7558 3.8942 24.0725 0.0 0.0 0.0 -7.1250 0.0 0.0 -8.3411 5.3024 -7.6175 0.0000 0.0000 0.0000 -31.8556 -13.1503 -7.7216 -16.3849 -26.0397 -3.8134 -22.6184 14.023 27.8222 0.0 0.0 0.0 7.1250 0.0 -0.0 9.0082 59.5106 -3.208
12.6519 16.9342 -4.5059 -199.9190 -1.5050 -172.0940 0.0000 0.0000 0.0000 -20.6688 24.1154 -25.5211 4.7738 13.1244 39.8361 -0.5235 -13.6228 10.3389 0.0273 -1.0667 -2.9323 0.0000 0.0000 0.0000 -22.1154 0.9049 -28.3699 -2.3901 -9.6353 27.8035 -0.3393 2.6790 -10.4050 -3.3520 11.2441 -33.1077 -0.7264 1.5582 21.2323 5.0964 1.0098 5.9886 5.7313 -0.0185 -5.4466 -9.3892 -13.2291 -18.5557 4.7443 -16.7494 14.3833 0.7691 -7.9614 8.6652 0.0000 0.0000 0.0000 70.9902 -6.7502 -22.174 20.6892 -31.4638 5.8869 16.3111 2.2932 23.9718 0.0 0.0 0.0 -7.1250 0.0 0.0 -7.9920 5.3264 -7.2884 0.0000 0.0000 0.0000 -29.355 -12.0212 -6.3819 -16.3711 -26.0213 -3.8073 -22.8516 13.3061 27.5292 0.0 0.0 0.0 7.1250 0.0 -0.0 8.5956 59.2666 -3.0094
12.9111 16.7916 -4.6102 -200.8690 -4.9459 -172.6580 0.0000 0.0000 0.0000 -19.9568 24.9016 -25.9791 5.4120 13.8333 42.5737 -0.4039 -11.1823 4.3927 0.3154 -3.6101 -9.9824 0.0000 0.0000 0.0000 -22.1926 -2.3751 -27.9480 -3.0511 -10.7774 31.5327 -0.4973 3.4700 -12.5865 -3.0754 10.8161 -31.6620 -1.1935 1.5278 21.4286 5.3439 0.9847 5.6561 6.2941 0.0194 -5.9204 -9.4723 -13.0294 -18.8129 4.6637 -16.4526 14.9509 0.7670 -7.8277 8.8838 -0.0000 -0.0000 0.0000 73.6637 -7.665 -18.6155 20.7550 -31.5412 5.9212 17.4874 1.626 23.7608 0.0 0.0 0.0 -7.1250 0.0 0.0 -7.2502 5.371 -6.5939 -0.0000 -0.0000 0.0000 -26.7762 -11.1021 -5.978 -16.3513 -25.9947 -3.7986 -22.5442 12.5543 27.4058 0.0 0.0 0.0 7.1250 0.0 -0.0 8.8723 59.0691 -3.0652
13.1549 16.6385 -4.6948 -201.6930 -8.5604 -172.9910 0.0000 0.0000 0.0000 -19.2505 25.0379 -26.5899 5.9704 14.3996 44.8628 -0.1561 -7.8481 -0.9421 0.6003 -4.9598 -13.7938 0.0000 0.0000 0.0000 -22.2568 -4.3463 -28.3356 -4.1214 -12.3202 36.8743 -0.7400 3.3374 -15.4649 -2.6663 10.1341 -29.4121 -1.3909 1.2910 21.5343 5.4905 0.7373 5.2961 6.6487 -0.0501 -6.3428 -8.9586 -12.6686 -19.1539 4.2293 -15.9791 15.3165 0.6027 -7.6170 8.9535 -0.0000 -0.0000 0.0000 76.3493 -8.4158 -14.645 20.9924 -31.8195 6.0459 18.3826 0.1163 22.4345 0.0 0.0 0.0 -7.1250 0.0 0.0 -6.5957 6.5971 -5.834 -0.0000 -0.0000 0.0000 -24.2258 -10.578 -5.2742 -16.3087 -25.9374 -3.78 -22.6282 11.2424 27.3796 0.0 0.0 0.0 7.1250 0.0 -0.0 8.7659 59.0617 -3.0266
13.4196 16.4861 -4.7783 -201.9690 -11.3735 -173.7850 0.0000 0.0000 0.0000 -17.7228 25.9765 -26.6164 6.3507 14.7598 46.3736 0.0843 -3.8803 -5.4532 1.1925 -6.9294 -19.5063 0.0000 0.0000 0.0000 -21.6853 -4.9788 -27.9586 -4.9877 -13.3699 40.7696 -0.9679 2.7058 -17.8803 -2.1507 9.1731 -26.3384 -1.7279 1.3326 22.0536 5.7750 0.7565 5.1879 7.1799 -0.0203 -6.7429 -8.7937 -12.2828 -19.1681 4.3575 -15.4399 14.9348 0.7198 -7.3456 8.7899 -0.0000 -0.0000 0.0000 78.8494 -8.2781 -10.4242 21.5919 -32.5128 6.3651 19.8392 -2.1151 20.8989 0.0 0.0 0.0 -7.1250 0.0 0.0 -5.5625 7.9714 -4.7604 -0.0000 -0.0000 0.0000 -21.8275 -10.6412 -4.2373 -16.2408 -25.8461 -3.7503 -22.6528 9.351 27.5513 0.0 0.0 0.0 7.1250 0.0 -0.0 8.8276 59.2427 -3.0864
13.6545 16.3493 -4.8750 -201.3470 -14.1521 -174.6020 0.0000 0.0000 0.0000 -15.3443 26.6898 -26.6687 6.6543 15.0338 47.5545 0.1936 -1.6219 -7.9022 1.0864 -6.6244 -18.6072 0.0000 0.0000 0.0000 -20.0480 -5.9285 -27.9070 -5.9294 -14.3596 44.6978 -1.2208 1.6332 -20.4123 -2.3832 9.6224 -27.7623 -1.1558 1.2248 22.1393 6.4000 0.7661 5.0962 7.5541 -0.0281 -6.8885 -9.2791 -11.8989 -18.8675 4.6843 -14.8052 14.4342 1.0234 -7.0535 8.5948 0.0000 0.0000 0.0000 80.5624 -8.7044 -5.6113 21.7558 -32.7 6.4534 21.1979 -3.7878 19.0935 0.0 0.0 0.0 -7.1250 0.0 0.0 -4.5565 9.6626 -3.7392 0.0000 0.0000 0.0000 -19.8509 -10.9382 -3.1461 -16.2027 -25.7947 -3.7337 -22.4469 7.241 27.5865 0.0 0.0 0.0 7.1250 0.0 -0.0 9.0739 59.2305 -3.1707
